<?xml version="1.0" encoding="utf-8"?>
<!DOCTYPE svg PUBLIC "-//W3C//DTD SVG 1.1//EN" "http://www.w3.org/Graphics/SVG/1.1/DTD/svg11.dtd">
<svg version="1.1" id="viveka-logo" xmlns="http://www.w3.org/2000/svg" xmlns:xlink="http://www.w3.org/1999/xlink" x="0px"
	 y="0px" width="90px" height="90px" viewBox="0 0 90 90" enable-background="new 0 0 90 90" xml:space="preserve">
<path id="tail" fill-rule="evenodd" clip-rule="evenodd" fill="#FFFFFF" d="M67.189,35.946
	c-11.337,6.062-4.979,30.963-15.185,36.385c12.949,0.005,18.603-4.874,17.752-17.336c-2.757,4.962-4.997,5.256-6.952,5.457
	C65.158,47.985,61.896,41.458,67.189,35.946z"/>
<path id="wing" fill-rule="evenodd" clip-rule="evenodd" fill="#FFFFFF" d="M39.078,72.32c5.753-3.346,7.903-10.524,10.499-20.5
	c2.802-10.761,6.062-19.104,17.096-25.727C48.696,44.815,62.521,72.331,39.078,72.32z"/>
<path id="head" fill-rule="evenodd" clip-rule="evenodd" fill="#FFFFFF" d="M17.001,39.438c0.642-1.5,2.059-4.442,2.972-6.619
	c-1.848-9.088,7.521-13.936,12.206-11.424c4.293,2.303,6.249,5.49,2.653,13.452c-3.12,6.906-11.706,16.328-4.246,22.74
	c8.199,7.045,2.344-16.69,37.678-44.947C51.834,31.927,49.552,36.822,44.279,54.385c-6.03,20.079-17.092,22.256-23.032,11.743
	c-8.744-15.474,7.299-28.216,7.536-31.6c0.176-2.526-1.543,0.989-4.776,1.281C21.386,36.045,15.703,42.478,17.001,39.438z"/>
</svg>
